<svg xmlns="http://www.w3.org/2000/svg" xmlns:xlink="http://www.w3.org/1999/xlink" width="500" zoomAndPan="magnify" viewBox="0 0 375 374.999991" height="500" preserveAspectRatio="xMidYMid meet" version="1.0"><defs><clipPath id="id1"><path d="M 68 271 L 317.308594 271 L 317.308594 281.722656 L 68 281.722656 Z M 68 271 " clip-rule="nonzero"/></clipPath><clipPath id="id2"><path d="M 117 93.472656 L 281 93.472656 L 281 134 L 117 134 Z M 117 93.472656 " clip-rule="nonzero"/></clipPath></defs><g clip-path="url(#id1)"><path fill="#dcd3c9" d="M 317.257812 276.386719 C 317.257812 279.339844 261.484375 281.730469 192.683594 281.730469 C 123.882812 281.730469 68.109375 279.339844 68.109375 276.386719 C 68.109375 273.433594 123.882812 271.042969 192.683594 271.042969 C 261.484375 271.042969 317.257812 273.433594 317.257812 276.386719 " fill-opacity="1" fill-rule="nonzero"/></g><path fill="#7558b2" d="M 290.304688 265.179688 C 290.304688 269.074219 286.90625 272.226562 282.71875 272.226562 L 109.535156 272.226562 C 105.34375 272.226562 101.945312 269.074219 101.945312 265.179688 L 101.945312 163.335938 C 101.945312 159.445312 105.34375 156.277344 109.535156 156.277344 L 282.71875 156.277344 C 286.90625 156.277344 290.304688 159.445312 290.304688 163.335938 L 290.304688 265.179688 " fill-opacity="1" fill-rule="nonzero"/><path fill="#ffffff" d="M 280.632812 266.316406 L 111.078125 266.316406 L 111.078125 168.929688 L 280.632812 168.929688 L 280.632812 266.316406 " fill-opacity="1" fill-rule="nonzero"/><path fill="#dbe0eb" d="M 266.152344 265.566406 C 266.152344 268.898438 263.460938 271.597656 260.132812 271.597656 L 127.902344 271.597656 C 124.574219 271.597656 121.882812 268.898438 121.882812 265.566406 L 121.882812 182.621094 C 121.882812 179.292969 124.574219 176.597656 127.902344 176.597656 L 260.132812 176.597656 C 263.460938 176.597656 266.152344 179.292969 266.152344 182.621094 L 266.152344 265.566406 " fill-opacity="1" fill-rule="nonzero"/><path fill="#c2b7e2" d="M 260.132812 176.597656 L 127.902344 176.597656 C 124.574219 176.597656 121.882812 179.292969 121.882812 182.621094 L 121.882812 193.808594 L 266.152344 193.808594 L 266.152344 182.621094 C 266.152344 179.292969 263.460938 176.597656 260.132812 176.597656 " fill-opacity="1" fill-rule="nonzero"/><path fill="#f8fbfd" d="M 136.480469 185.257812 C 136.480469 186.90625 135.140625 188.242188 133.496094 188.242188 C 131.839844 188.242188 130.5 186.90625 130.5 185.257812 C 130.5 183.601562 131.839844 182.265625 133.496094 182.265625 C 135.140625 182.265625 136.480469 183.601562 136.480469 185.257812 " fill-opacity="1" fill-rule="nonzero"/><path fill="#f8fbfd" d="M 144.039062 185.257812 C 144.039062 186.90625 142.695312 188.242188 141.042969 188.242188 C 139.394531 188.242188 138.058594 186.90625 138.058594 185.257812 C 138.058594 183.601562 139.394531 182.265625 141.042969 182.265625 C 142.695312 182.265625 144.039062 183.601562 144.039062 185.257812 " fill-opacity="1" fill-rule="nonzero"/><path fill="#f8fbfd" d="M 151.324219 185.257812 C 151.324219 186.90625 149.988281 188.242188 148.339844 188.242188 C 146.695312 188.242188 145.351562 186.90625 145.351562 185.257812 C 145.351562 183.601562 146.695312 182.265625 148.339844 182.265625 C 149.988281 182.265625 151.324219 183.601562 151.324219 185.257812 " fill-opacity="1" fill-rule="nonzero"/><path fill="#ffffff" d="M 189.640625 263.050781 L 141.3125 263.050781 L 141.3125 250.828125 L 189.640625 250.828125 L 189.640625 263.050781 " fill-opacity="1" fill-rule="nonzero"/><path fill="#ffffff" d="M 244.324219 263.050781 L 195.996094 263.050781 L 195.996094 250.828125 L 244.324219 250.828125 L 244.324219 263.050781 " fill-opacity="1" fill-rule="nonzero"/><path fill="#ffffff" d="M 255.851562 244.53125 L 132.667969 244.53125 L 132.667969 200.320312 L 255.851562 200.320312 L 255.851562 244.53125 " fill-opacity="1" fill-rule="nonzero"/><g clip-path="url(#id2)"><path fill="#95dbd6" d="M 117.679688 121.925781 L 197.386719 93.476562 L 280.804688 121.34375 L 197.53125 133.5625 L 117.679688 121.925781 " fill-opacity="1" fill-rule="nonzero"/></g><path fill="#4e9e98" d="M 239.691406 127.222656 C 239.675781 123.929688 220.703125 121.332031 197.320312 121.417969 C 173.933594 121.5 154.988281 124.238281 154.996094 127.527344 L 155.09375 155.378906 C 155.109375 158.667969 174.078125 161.273438 197.464844 161.183594 C 220.851562 161.101562 239.800781 158.363281 239.789062 155.074219 L 239.691406 127.222656 " fill-opacity="1" fill-rule="nonzero"/><path fill="#95dbd6" d="M 273.453125 164.375 L 273.296875 122.195312 L 271.128906 122.203125 L 271.277344 163.53125 L 268.582031 170.074219 L 268.613281 178.972656 L 275.875 178.945312 L 275.839844 170.050781 L 273.453125 164.375 " fill-opacity="1" fill-rule="nonzero"/><path fill="#71c8be" d="M 154.996094 127.527344 L 155.078125 149.605469 C 162.835938 152.425781 171.75 154.027344 181.234375 153.996094 C 207.773438 153.898438 229.765625 141.109375 234.324219 124.34375 C 227.078125 122.539062 213.230469 121.359375 197.324219 121.414062 C 173.9375 121.5 154.988281 124.234375 154.996094 127.527344 " fill-opacity="1" fill-rule="nonzero"/><path fill="#f26143" d="M 225.875 197.683594 C 225.03125 197.292969 222.265625 197.074219 220.816406 199.261719 C 218.867188 202.191406 218.195312 209.324219 213.847656 211.476562 C 209.488281 213.621094 206.769531 211.789062 204.792969 210.792969 C 202.816406 209.808594 202.488281 208.476562 201.261719 208.03125 C 200.054688 207.582031 199.582031 209.054688 202.371094 211.402344 C 203.722656 212.527344 209.644531 218.878906 215.304688 217.292969 C 222.726562 215.199219 230.863281 199.957031 225.875 197.683594 " fill-opacity="1" fill-rule="nonzero"/><path fill="#f26143" d="M 213.121094 247.535156 C 214.207031 252.957031 217.082031 260.039062 217.226562 263.761719 C 217.246094 264.351562 217.179688 264.570312 215.25 265.035156 C 213.332031 265.492188 215.082031 266.695312 218.351562 266.820312 C 221.621094 266.945312 220.632812 251.167969 219.417969 243.726562 C 218.34375 237.226562 211.859375 241.242188 213.121094 247.535156 " fill-opacity="1" fill-rule="nonzero"/><path fill="#7180c8" d="M 219.839844 265.324219 C 219.839844 265.324219 216.914062 266.386719 215.25 265.035156 C 215.25 265.035156 212.015625 265.304688 213.980469 266.289062 C 215.933594 267.277344 219.773438 268.238281 219.839844 265.324219 " fill-opacity="1" fill-rule="nonzero"/><path fill="#7340a3" d="M 231.394531 213.144531 C 231.394531 213.144531 214.566406 224.96875 212.140625 231.011719 C 209.96875 236.449219 215.011719 258.359375 215.011719 258.359375 C 215.011719 258.359375 218.5625 259.773438 221.820312 257.773438 L 221.390625 240.738281 L 235.59375 227.738281 L 231.394531 213.144531 " fill-opacity="1" fill-rule="nonzero"/><path fill="#f26143" d="M 239.867188 252.152344 C 244.550781 255.75 251.839844 259.441406 254.578125 262.332031 C 255.015625 262.785156 255.105469 263.019531 253.882812 264.753906 C 252.652344 266.464844 254.914062 266.199219 257.636719 264.003906 C 260.359375 261.808594 248.464844 249.789062 242.25 244.652344 C 236.820312 240.171875 234.421875 247.980469 239.867188 252.152344 " fill-opacity="1" fill-rule="nonzero"/><path fill="#7180c8" d="M 257.789062 261.757812 C 257.789062 261.757812 256.171875 264.667969 253.882812 264.753906 C 253.882812 264.753906 251.472656 267.238281 253.738281 266.65625 C 256.007812 266.074219 259.769531 264.144531 257.789062 261.757812 " fill-opacity="1" fill-rule="nonzero"/><path fill="#8647a8" d="M 233.886719 213.058594 C 233.886719 213.058594 225.15625 232.964844 227.457031 239.535156 C 229.523438 245.449219 248.992188 259.542969 248.992188 259.542969 C 248.992188 259.542969 252.847656 258.183594 254.066406 254.277344 L 241.738281 240.855469 C 241.738281 240.855469 246.667969 225.335938 244.25 219.585938 C 244.164062 219.390625 244.589844 220.953125 244.589844 220.953125 L 233.886719 213.058594 " fill-opacity="1" fill-rule="nonzero"/><path fill="#988dce" d="M 243.984375 219.28125 C 243.992188 219.28125 243.996094 219.273438 244.003906 219.265625 C 244.003906 219.265625 243.992188 219.28125 243.984375 219.28125 C 243.898438 219.152344 243.816406 219.039062 243.730469 218.898438 C 240.597656 213.675781 238.359375 210.449219 238.535156 204.265625 C 238.800781 195.414062 232.277344 196.183594 228.292969 196.570312 C 224.308594 196.945312 218.03125 198.78125 218.207031 205.886719 C 218.335938 211.007812 220.15625 217.609375 223.382812 221.867188 C 227.046875 226.695312 248.398438 224.707031 243.984375 219.28125 " fill-opacity="1" fill-rule="nonzero"/><path fill="#746cbd" d="M 243.730469 218.898438 C 243.816406 219.039062 243.898438 219.152344 243.984375 219.28125 C 243.992188 219.28125 244 219.265625 244 219.265625 C 243.996094 219.273438 243.992188 219.28125 243.984375 219.28125 C 247.398438 223.476562 235.402344 225.609375 228.101562 224.140625 C 226.96875 222.441406 232.457031 221.992188 234.488281 220.34375 C 239.171875 216.542969 222.464844 216.21875 225.34375 214.824219 C 228.449219 213.324219 233.074219 213.921875 231.039062 209.367188 C 229.011719 204.8125 230.761719 199.367188 232.683594 197.523438 C 234.695312 195.597656 238.050781 197.855469 238.421875 202.046875 C 238.511719 202.714844 238.566406 203.441406 238.535156 204.265625 C 238.359375 210.449219 240.597656 213.675781 243.730469 218.898438 " fill-opacity="1" fill-rule="nonzero"/><path fill="#e24d36" d="M 227.726562 191.359375 C 227.726562 191.359375 226.847656 194.730469 229.332031 195.972656 C 231.878906 197.242188 224.066406 203.472656 223.941406 201.625 C 223.78125 199.242188 224.722656 197.632812 223.078125 195.167969 L 227.726562 191.359375 " fill-opacity="1" fill-rule="nonzero"/><path fill="#f26143" d="M 221.71875 186.414062 C 220.070312 188.652344 219.472656 197.277344 221.886719 198.707031 C 222.949219 199.320312 226.519531 197.738281 228.210938 193.679688 C 228.914062 192.015625 229.589844 189.003906 227.570312 186.488281 C 226.65625 185.34375 223.621094 183.804688 221.71875 186.414062 " fill-opacity="1" fill-rule="nonzero"/><path fill="#15243a" d="M 228.820312 186.371094 C 230.957031 189.050781 230.015625 191.640625 229.863281 192.117188 C 229.3125 193.855469 227.898438 195.476562 227.46875 194.972656 C 226.960938 194.375 228.898438 193.742188 228.007812 192.023438 C 227.109375 190.300781 228.25 189.691406 227.660156 188.148438 C 227.082031 186.613281 225.949219 187.140625 222.351562 187.253906 C 220.878906 187.300781 220.511719 186.800781 220.566406 186.1875 C 222.386719 183.574219 226.578125 183.550781 228.820312 186.371094 " fill-opacity="1" fill-rule="nonzero"/><path fill="#313664" d="M 220.273438 188.28125 C 219.394531 186.199219 216.277344 186.699219 217.273438 185.226562 C 217.9375 184.242188 217.941406 184.984375 225.382812 183.46875 C 228.855469 182.757812 229.535156 184.242188 230.199219 186.199219 C 230.8125 188.007812 230.621094 192.453125 228.246094 195.066406 C 225.875 197.683594 228.316406 193.328125 227.40625 191.359375 C 226.5 189.394531 225.902344 190.226562 224.59375 190.550781 C 223.28125 190.875 221.6875 191.632812 220.273438 188.28125 " fill-opacity="1" fill-rule="nonzero"/><path fill="#8f242b" d="M 244.777344 224.796875 L 238.476562 233.835938 L 187.765625 198.40625 L 181.25 187.132812 L 194.078125 189.371094 L 244.777344 224.796875 " fill-opacity="1" fill-rule="nonzero"/><path fill="#8f242b" d="M 241.289062 229.804688 L 238.476562 233.832031 L 187.765625 198.40625 L 190.582031 194.382812 L 241.289062 229.804688 " fill-opacity="1" fill-rule="nonzero"/><path fill="#1e1a39" d="M 181.25 187.132812 L 183.019531 190.1875 L 184.71875 187.742188 Z M 181.25 187.132812 " fill-opacity="1" fill-rule="nonzero"/><path fill="#f26143" d="M 234.148438 196.980469 C 233.203125 197.054688 231.558594 198.480469 231.347656 201.132812 C 231.046875 204.679688 233.054688 211.058594 230.257812 215.09375 C 227.445312 219.132812 224.140625 218.847656 221.90625 218.941406 C 219.660156 219.039062 218.722656 218.023438 217.433594 218.21875 C 216.132812 218.414062 216.4375 219.953125 220.066406 220.664062 C 221.800781 221 230.167969 223.710938 234.402344 219.523438 C 239.945312 214.035156 239.671875 196.542969 234.148438 196.980469 " fill-opacity="1" fill-rule="nonzero"/><path fill="#654eab" d="M 306.066406 277.164062 L 89.144531 277.164062 L 89.144531 265.816406 L 306.066406 265.816406 L 306.066406 277.164062 " fill-opacity="1" fill-rule="nonzero"/><path fill="#f18214" d="M 96.320312 253.921875 C 96.320312 254.945312 90.671875 255.773438 83.695312 255.773438 C 76.714844 255.773438 71.0625 254.945312 71.0625 253.921875 C 71.0625 252.898438 76.714844 252.0625 83.695312 252.0625 C 90.671875 252.0625 96.320312 252.898438 96.320312 253.921875 " fill-opacity="1" fill-rule="nonzero"/><path fill="#f18214" d="M 83.695312 252.0625 C 76.714844 252.0625 71.0625 252.898438 71.0625 253.921875 L 96.320312 253.921875 C 96.320312 252.898438 90.671875 252.0625 83.695312 252.0625 " fill-opacity="1" fill-rule="nonzero"/><path fill="#9f6fbe" d="M 77.671875 261.949219 C 77.671875 261.949219 85.746094 247.085938 77.671875 239.601562 C 69.59375 232.121094 72.242188 222.007812 75.378906 217.128906 C 78.507812 212.25 75.664062 197.925781 66.753906 200.492188 C 57.847656 203.058594 59.257812 221.695312 63.484375 225.402344 C 70.972656 231.980469 62.507812 243.59375 74.820312 248.023438 C 80.769531 250.164062 77.671875 261.949219 77.671875 261.949219 " fill-opacity="1" fill-rule="nonzero"/><path fill="#d27cc4" d="M 89.386719 197.617188 C 86.574219 195.917969 81.132812 193.195312 79.519531 203.261719 C 77.484375 215.953125 93.515625 221.523438 88.324219 225.828125 C 76.570312 235.566406 72.363281 243.820312 79.519531 252.0625 C 82.902344 255.964844 84.398438 260.648438 77.929688 260.789062 C 71.460938 260.925781 100.554688 259.589844 93.917969 238.496094 C 92.601562 234.316406 105.554688 226.390625 98.664062 216.511719 C 94.214844 210.132812 99.113281 203.519531 89.386719 197.617188 " fill-opacity="1" fill-rule="nonzero"/><path fill="#5d5bb3" d="M 80.039062 259.296875 C 80.039062 259.296875 85.964844 254.535156 81.460938 250.046875 C 72.070312 240.691406 85.132812 236.488281 77.867188 229.253906 C 70.609375 222.015625 77.746094 211.605469 85.171875 211.835938 C 87.4375 211.902344 91.304688 212.324219 86.265625 218.777344 C 78.035156 229.335938 86.214844 235.710938 87.660156 238.8125 C 90.699219 245.34375 90.585938 255.488281 80.039062 259.296875 " fill-opacity="1" fill-rule="nonzero"/><path fill="#8a6ebe" d="M 85.832031 259.625 C 85.832031 259.625 81.011719 250.761719 85.832031 246.289062 C 90.652344 241.828125 89.070312 235.796875 87.203125 232.882812 C 85.335938 229.972656 87.035156 221.421875 92.347656 222.957031 C 97.667969 224.488281 96.828125 235.609375 94.308594 237.820312 C 89.835938 241.746094 94.890625 248.671875 87.539062 251.320312 C 83.984375 252.597656 85.832031 259.625 85.832031 259.625 " fill-opacity="1" fill-rule="nonzero"/><path fill="#fab92d" d="M 83.695312 255.773438 C 76.714844 255.773438 71.0625 254.945312 71.0625 253.921875 L 73.753906 276.339844 C 73.753906 277.363281 78.203125 278.195312 83.695312 278.195312 C 89.183594 278.195312 93.636719 277.363281 93.636719 276.339844 L 96.320312 253.921875 C 96.320312 254.945312 90.671875 255.773438 83.695312 255.773438 " fill-opacity="1" fill-rule="nonzero"/></svg>