<svg width="369" height="428" viewBox="0 0 369 428" fill="none" xmlns="http://www.w3.org/2000/svg">
<path d="M98.7607 130.418C96.1278 131.42 93.4392 132.269 90.7084 132.962C87.1011 133.84 85.0644 134.247 81.5828 132.897C81.4605 132.85 81.3438 132.803 81.2337 132.757C74.6344 129.955 68.9931 125.297 64.9965 119.35C61 113.404 58.8205 106.425 58.7234 99.2639C58.706 99.0182 58.706 98.7599 58.706 98.508C58.7026 97.2943 58.7607 96.0812 58.88 94.8733C59.0326 93.2281 59.2961 91.5949 59.6688 89.9851L59.634 89.9788C56.8152 87.1001 55.7306 83.1567 56.0902 79.1946C56.3365 76.5084 57.1901 73.913 58.5867 71.6042C59.9832 69.2953 61.8862 67.3331 64.1523 65.8654C67.7038 63.6354 71.7082 62.2238 75.8744 61.7331C76.9931 61.6043 78.1182 61.5391 79.2442 61.5378H89.8237C92.0087 61.0269 94.2284 60.6774 96.4648 60.4922H96.4822C117.774 58.7284 134.566 72.826 133 89.9788C132.988 89.9977 132.971 90.0166 132.959 90.0355C132.507 90.7725 132.107 91.4717 131.753 92.1394C131.411 92.763 131.121 93.3615 130.871 93.9284C128.928 98.3127 138.162 166.334 134.85 167.367C132.965 167.953 125.367 117.336 126.73 126.962C128.447 139.037 108.57 126.797 98.7607 130.418Z" fill="#2F2E41"/>
<path d="M130.836 253.382L160.352 316.181L46.8131 304.696L70.5137 244.41L130.836 253.382Z" fill="#FFB6B6"/>
<path d="M190.086 379.291C170.342 385.855 149.536 388.638 128.758 387.495L119.723 372.861C119.723 372.861 119.345 378.311 118.781 386.643C108.89 385.498 99.1288 383.431 89.6241 380.469C71.5991 374.84 54.7026 366.118 37.5753 358.074C34.1063 337.421 32.8045 305.573 51.9838 287.033L155.216 305.925C155.216 305.925 171.779 318.298 167.348 322.73C162.917 327.155 162.231 326.47 165.142 329.377C168.053 332.285 174.344 336.172 174.408 338.714C174.433 339.707 181.493 357.709 190.086 379.291Z" fill="#2F2E41"/>
<path d="M112.81 132.032L87.869 133.77L71.749 149.327L66.1035 150.333C61.0288 151.237 56.4626 153.969 53.2707 158.011C50.0788 162.053 48.4831 167.125 48.7863 172.264C49.9476 191.914 52.5476 221.274 57.982 230.799C66.4086 245.569 73.3687 240.935 66.4086 245.569C59.4484 250.203 54.7756 246.562 57.982 253.886C61.1885 261.209 53.6483 270.603 53.6483 270.603L50.6467 273.601L53.8303 274.904L155.271 288.087C155.271 288.087 146.5 248.7 151.985 239.025C157.47 229.349 170.771 200.103 158.9 188.659L147.294 147.868L127.33 141.988L112.81 132.032Z" fill="#6C63FF"/>
<path d="M263.786 293.686C262.117 293.633 260.479 293.219 258.986 292.472C257.493 291.725 256.181 290.663 255.139 289.359C254.098 288.055 253.352 286.541 252.954 284.922C252.556 283.302 252.515 281.615 252.834 279.978L205.25 247.794L210.928 232.46L267.164 271.099C269.883 271.84 272.236 273.551 273.776 275.909C275.316 278.266 275.937 281.106 275.52 283.891C275.104 286.675 273.68 289.21 271.517 291.015C269.354 292.821 266.604 293.771 263.786 293.686V293.686Z" fill="#FFB6B6"/>
<path d="M129.386 145.942L122.472 148.676L159.356 220.622L235.714 272.604L246.72 254.025L188.596 203.884L165.326 159.312C162.051 153.039 156.565 148.201 149.928 145.732C143.29 143.263 135.972 143.337 129.386 145.942Z" fill="#6C63FF"/>
<path d="M99.0415 125.704C112.873 125.704 124.085 114.506 124.085 100.692C124.085 86.8788 112.873 75.6807 99.0415 75.6807C85.2102 75.6807 73.9977 86.8788 73.9977 100.692C73.9977 114.506 85.2102 125.704 99.0415 125.704Z" fill="#FFB6B6"/>
<path d="M120.82 90.1157C120.402 90.3358 119.99 90.5385 119.572 90.7413C119.137 90.9498 118.702 91.1584 118.262 91.3553C109.88 95.1495 103.054 95.5724 98.9124 90.1157C98.7991 87.2449 98.152 84.4202 97.0042 81.7857C97.207 84.7298 96.4302 87.6582 94.7944 90.1157H86.4538C77.8638 95.8099 73.4557 101.041 79.4182 119.734C79.8068 120.962 82.4691 164.593 83.2289 167.947C70.2251 162.965 59.0076 110.072 58.7234 96.1343C58.706 95.9084 58.706 95.6709 58.706 95.4392C58.7026 94.3227 58.7607 93.2069 58.88 92.0968C59.0331 90.5812 59.2967 89.0788 59.6688 87.6016L59.634 87.5958C58.311 86.3325 57.3016 84.7781 56.6863 83.0563C56.0711 81.3346 55.8669 79.4931 56.0902 77.6787C58.2716 74.826 60.9712 72.4089 64.0479 70.5537C66.8456 69.2006 69.7618 68.107 72.7597 67.2866C72.8351 67.2692 72.8989 67.2518 72.9743 67.2344C73.8907 66.9853 74.8304 66.7594 75.77 66.5625C77.7063 66.1569 79.6641 65.861 81.6339 65.6762C81.7789 65.6704 81.9181 65.6588 82.0457 65.6588C82.8336 65.6593 83.6069 65.8714 84.2845 66.2728C84.2903 66.2728 84.2903 66.2786 84.3019 66.2786C84.9531 66.6672 85.4931 67.2166 85.87 67.8741C86.2468 68.5315 86.4479 69.2748 86.4538 70.0323H95.7456C96.0878 70.0323 96.43 70.0439 96.7722 70.0613C109.712 70.5768 120.112 76.1031 120.779 88.8065C120.808 89.2468 120.82 89.6754 120.82 90.1157Z" fill="#2F2E41"/>
<path d="M65.8847 91.1212C74.9969 91.1212 82.3837 83.7438 82.3837 74.6433C82.3837 65.5427 74.9969 58.1653 65.8847 58.1653C56.7726 58.1653 49.3857 65.5427 49.3857 74.6433C49.3857 83.7438 56.7726 91.1212 65.8847 91.1212Z" fill="#2F2E41"/>
<path d="M88.5361 67.0217C86.6617 75.9276 77.4138 81.2541 68.5667 79.0752C64.3182 78.0289 60.6598 75.3398 58.3965 71.5996C56.1331 67.8594 55.4501 63.3745 56.4978 59.1313C58.6794 50.2955 69.4165 52.8428 76.4671 47.0778C86.4412 38.9224 91.0639 55.0114 88.5361 67.0217Z" fill="#2F2E41"/>
<path d="M51.8777 314.927C65.9395 257.657 93.8016 208.432 139.945 169.865C141.731 166.931 144.609 164.824 147.948 164.006C151.287 163.189 154.815 163.728 157.757 165.505L267.451 231.93C270.389 233.714 272.498 236.588 273.317 239.923C274.135 243.258 273.595 246.781 271.816 249.719C254.204 308.485 227.825 359.478 183.749 394.782C181.963 397.716 179.085 399.823 175.746 400.64C172.407 401.457 168.879 400.918 165.938 399.141L56.2431 332.716C53.3053 330.933 51.1958 328.058 50.3774 324.723C49.5591 321.388 50.0986 317.865 51.8777 314.927V314.927Z" fill="#F2F2F2"/>
<path opacity="0.2" d="M71.3749 334.228C68.4371 332.445 66.3277 329.57 65.5093 326.235C64.6909 322.9 65.2305 319.377 67.0097 316.439C81.0714 259.169 108.934 209.944 155.077 171.376C156.259 169.456 157.928 167.881 159.915 166.812L157.757 165.505C154.815 163.728 151.287 163.189 147.948 164.006C144.609 164.824 141.731 166.93 139.945 169.864C93.8017 208.431 65.9397 257.656 51.8779 314.927C50.0987 317.865 49.5592 321.388 50.3775 324.723C51.1959 328.058 53.3054 330.932 56.2431 332.716L165.937 399.141C167.89 400.315 170.118 400.951 172.396 400.987C174.675 401.024 176.922 400.457 178.911 399.346L71.3749 334.228Z" fill="black"/>
<path d="M200.018 302.231L126.386 257.922C125.217 257.216 124.375 256.075 124.047 254.75C123.719 253.424 123.931 252.023 124.636 250.854C125.341 249.685 126.483 248.843 127.809 248.514C129.136 248.184 130.539 248.394 131.71 249.097L205.342 293.406C206.509 294.114 207.348 295.254 207.674 296.578C208.001 297.902 207.789 299.301 207.084 300.469C206.38 301.636 205.24 302.478 203.916 302.808C202.591 303.138 201.19 302.931 200.018 302.231L200.018 302.231Z" fill="white"/>
<path d="M157.184 243.472L140.985 233.724C139.811 233.023 138.964 231.885 138.631 230.56C138.297 229.235 138.504 227.831 139.207 226.659C139.909 225.487 141.049 224.641 142.376 224.308C143.702 223.975 145.107 224.182 146.281 224.883L146.309 224.9L162.508 234.648C163.675 235.355 164.514 236.496 164.841 237.82C165.168 239.144 164.955 240.543 164.251 241.711C163.546 242.879 162.407 243.72 161.082 244.05C159.757 244.38 158.356 244.173 157.184 243.472V243.472Z" fill="white"/>
<path d="M188.316 321.629L114.684 277.319C113.513 276.615 112.669 275.475 112.339 274.15C112.009 272.825 112.219 271.423 112.924 270.253C113.628 269.083 114.768 268.239 116.095 267.908C117.421 267.578 118.825 267.786 119.997 268.488L120.008 268.495L193.64 312.804C194.807 313.511 195.645 314.652 195.972 315.976C196.298 317.299 196.086 318.698 195.381 319.866C194.677 321.034 193.538 321.875 192.213 322.205C190.889 322.536 189.487 322.328 188.316 321.628L188.316 321.629Z" fill="white"/>
<path d="M209.369 218.684C221.247 218.684 230.876 209.068 230.876 197.205C230.876 185.343 221.247 175.726 209.369 175.726C197.492 175.726 187.863 185.343 187.863 197.205C187.863 209.068 197.492 218.684 209.369 218.684Z" fill="#3F3D56"/>
<path d="M172.298 427.359C197.684 427.359 218.264 406.806 218.264 381.451C218.264 356.097 197.684 335.543 172.298 335.543C146.911 335.543 126.331 356.097 126.331 381.451C126.331 406.806 146.911 427.359 172.298 427.359Z" fill="white"/>
<path d="M172.298 428C163.08 428 154.068 425.27 146.404 420.155C138.739 415.04 132.765 407.771 129.238 399.265C125.71 390.759 124.787 381.4 126.585 372.371C128.384 363.341 132.823 355.047 139.341 348.537C145.859 342.027 154.164 337.594 163.205 335.798C172.246 334.001 181.617 334.923 190.134 338.446C198.65 341.969 205.929 347.936 211.051 355.59C216.172 363.245 218.906 372.245 218.906 381.451C218.892 393.792 213.977 405.624 205.239 414.351C196.502 423.077 184.655 427.986 172.298 428V428ZM172.298 336.184C163.333 336.184 154.57 338.839 147.116 343.813C139.662 348.787 133.853 355.857 130.422 364.128C126.992 372.4 126.094 381.502 127.843 390.283C129.592 399.064 133.909 407.13 140.248 413.461C146.587 419.791 154.663 424.103 163.455 425.849C172.248 427.596 181.361 426.7 189.643 423.273C197.925 419.847 205.004 414.045 209.985 406.601C214.965 399.156 217.623 390.404 217.623 381.451C217.61 369.45 212.83 357.944 204.333 349.457C195.835 340.971 184.315 336.197 172.298 336.184V336.184Z" fill="#3F3D56"/>
<path d="M166.027 405.344C165.233 405.344 164.45 405.16 163.74 404.805C163.03 404.451 162.413 403.936 161.937 403.301L149.396 386.602C148.993 386.065 148.699 385.455 148.532 384.805C148.365 384.155 148.328 383.479 148.422 382.814C148.517 382.15 148.742 381.511 149.084 380.934C149.426 380.356 149.879 379.852 150.417 379.449C150.954 379.047 151.566 378.754 152.217 378.587C152.867 378.421 153.545 378.384 154.21 378.48C154.875 378.575 155.514 378.8 156.092 379.142C156.67 379.485 157.175 379.937 157.577 380.474L165.782 391.399L186.854 359.832C187.226 359.274 187.705 358.794 188.263 358.421C188.821 358.048 189.447 357.788 190.105 357.657C190.764 357.525 191.442 357.525 192.1 357.655C192.759 357.785 193.386 358.043 193.945 358.415C194.503 358.787 194.983 359.266 195.357 359.823C195.73 360.38 195.99 361.005 196.122 361.663C196.254 362.32 196.255 362.997 196.124 363.655C195.994 364.313 195.735 364.939 195.363 365.497L170.282 403.07C169.828 403.75 169.218 404.311 168.502 404.706C167.787 405.102 166.987 405.32 166.169 405.343C166.122 405.344 166.074 405.344 166.027 405.344Z" fill="#6C63FF"/>
<path d="M320.748 148.81C322.575 148.654 323.967 147.499 323.859 146.23C323.75 144.961 322.181 144.059 320.355 144.215C318.528 144.371 317.135 145.526 317.244 146.795C317.353 148.064 318.921 148.966 320.748 148.81Z" fill="white"/>
<path d="M341.3 141.847C343.126 141.692 344.519 140.536 344.41 139.267C344.302 137.998 342.733 137.096 340.906 137.252C339.08 137.408 337.687 138.563 337.796 139.832C337.904 141.101 339.473 142.003 341.3 141.847Z" fill="#3F3D56"/>
<path d="M311.006 133.151C312.833 132.995 314.225 131.84 314.117 130.57C314.008 129.301 312.439 128.399 310.613 128.555C308.786 128.711 307.393 129.866 307.502 131.135C307.611 132.404 309.18 133.307 311.006 133.151Z" fill="#FF6584"/>
<path d="M302.385 128.105C303.171 127.927 303.602 126.869 303.346 125.74C303.091 124.611 302.247 123.84 301.461 124.017C300.674 124.195 300.244 125.254 300.499 126.382C300.755 127.511 301.599 128.282 302.385 128.105Z" fill="#E6E6E6"/>
<path d="M296.247 115.855C297.034 115.677 297.464 114.618 297.209 113.49C296.953 112.361 296.109 111.59 295.323 111.767C294.537 111.945 294.106 113.004 294.362 114.132C294.617 115.261 295.461 116.032 296.247 115.855Z" fill="#3F3D56"/>
<path d="M325.695 133.058C326.482 132.881 326.912 131.822 326.657 130.693C326.401 129.564 325.557 128.793 324.771 128.971C323.985 129.148 323.554 130.207 323.81 131.336C324.065 132.464 324.909 133.235 325.695 133.058Z" fill="#E6E6E6"/>
<path d="M316.719 140.5C317.505 140.323 317.935 139.264 317.68 138.135C317.425 137.007 316.58 136.236 315.794 136.413C315.008 136.59 314.578 137.649 314.833 138.778C315.088 139.907 315.933 140.678 316.719 140.5Z" fill="#FF6584"/>
<path d="M333.061 146.562C333.847 146.385 334.277 145.326 334.022 144.197C333.767 143.069 332.922 142.297 332.136 142.475C331.35 142.652 330.92 143.711 331.175 144.84C331.43 145.968 332.275 146.74 333.061 146.562Z" fill="#3F3D56"/>
<path d="M235.897 53.9183C236.21 52.6837 235.023 51.3182 233.246 50.8684C231.469 50.4186 229.774 51.0549 229.461 52.2895C229.148 53.5242 230.334 54.8897 232.112 55.3395C233.889 55.7892 235.583 55.153 235.897 53.9183Z" fill="white"/>
<path d="M214.195 53.7786C214.508 52.5439 213.322 51.1784 211.545 50.7286C209.767 50.2788 208.073 50.9151 207.76 52.1498C207.446 53.3844 208.633 54.75 210.41 55.1997C212.187 55.6495 213.882 55.0132 214.195 53.7786Z" fill="#3F3D56"/>
<path d="M239.969 71.9001C240.282 70.6655 239.096 69.3 237.319 68.8502C235.541 68.4004 233.847 69.0367 233.534 70.2713C233.22 71.506 234.407 72.8715 236.184 73.3213C237.961 73.771 239.656 73.1348 239.969 71.9001Z" fill="#FF6584"/>
<path d="M245.028 78.6806C245.157 77.5306 244.611 76.5259 243.81 76.4365C243.009 76.3471 242.256 77.2069 242.127 78.3569C241.998 79.5069 242.544 80.5116 243.345 80.601C244.146 80.6904 244.899 79.8306 245.028 78.6806Z" fill="#E6E6E6"/>
<path d="M246.812 92.2624C246.941 91.1124 246.396 90.1077 245.595 90.0183C244.794 89.9289 244.04 90.7887 243.912 91.9387C243.783 93.0886 244.328 94.0933 245.129 94.1827C245.93 94.2721 246.684 93.4123 246.812 92.2624Z" fill="#3F3D56"/>
<path d="M224.626 66.3795C224.754 65.2295 224.209 64.2248 223.408 64.1354C222.607 64.046 221.854 64.9058 221.725 66.0557C221.596 67.2057 222.141 68.2104 222.942 68.2998C223.743 68.3892 224.497 67.5294 224.626 66.3795Z" fill="#E6E6E6"/>
<path d="M235.547 62.2818C235.675 61.1318 235.13 60.1271 234.329 60.0378C233.528 59.9484 232.775 60.8081 232.646 61.9581C232.517 63.1081 233.062 64.1128 233.864 64.2022C234.665 64.2916 235.418 63.4318 235.547 62.2818Z" fill="#FF6584"/>
<path d="M222.092 51.2113C222.221 50.0613 221.676 49.0566 220.875 48.9672C220.074 48.8778 219.32 49.7376 219.192 50.8876C219.063 52.0376 219.608 53.0423 220.409 53.1317C221.21 53.2211 221.964 52.3613 222.092 51.2113Z" fill="#3F3D56"/>
<path d="M58.7176 315.534C57.0785 314.863 55.605 313.845 54.3987 312.549C53.1925 311.254 52.2824 309.712 51.7315 308.031C51.1805 306.35 51.0018 304.569 51.2076 302.812C51.4135 301.055 51.9991 299.364 52.9239 297.855L17.5886 248.248L28.9244 235.113L70.4613 294.338C72.8884 296.082 74.5908 298.654 75.246 301.568C75.9011 304.481 75.4634 307.533 74.0158 310.146C72.5683 312.758 70.2114 314.75 67.3918 315.743C64.5723 316.736 61.4859 316.662 58.7176 315.534H58.7176Z" fill="#FFB6B6"/>
<path d="M59.5295 158.331C57.7418 157.28 55.6378 156.9 53.5951 157.26C51.5524 157.619 49.7047 158.693 48.3838 160.29L0.641159 226.976L44.8861 289.736L62.1994 271.164L35.2677 228.897L71.0601 194.862C74.0014 188.427 74.4507 181.131 72.3211 174.384C70.1916 167.637 65.6343 161.918 59.5295 158.331V158.331Z" fill="#6C63FF"/>
</svg>
