<svg xmlns="http://www.w3.org/2000/svg" xmlns:xlink="http://www.w3.org/1999/xlink" viewBox="0 0 464.7 116.06"><defs><style>.cls-1{fill:url(#Dégradé_sans_nom_12);}.cls-2{fill:#f1f1f1;}.cls-3{fill:#d8d8d8;}.cls-4{fill:url(#Dégradé_sans_nom_16);}.cls-5{fill:#4f4c64;}.cls-6{fill:#393953;}.cls-7{fill:url(#Dégradé_sans_nom_5);}.cls-10,.cls-8{fill:#6966ff;}.cls-9{fill:#524fff;}.cls-10{font-size:72px;font-family:Inter-Bold, Inter;font-weight:700;letter-spacing:-0.08em;}.cls-11{letter-spacing:-0.05em;}</style><linearGradient id="Dégradé_sans_nom_12" y1="74.76" x2="80.72" y2="74.76" gradientUnits="userSpaceOnUse"><stop offset="0" stop-color="#d8d8d8"/><stop offset="1" stop-color="#f1f1f1"/></linearGradient><linearGradient id="Dégradé_sans_nom_16" y1="51.06" x2="80.72" y2="51.06" gradientUnits="userSpaceOnUse"><stop offset="0" stop-color="#393953"/><stop offset="1" stop-color="#4f4c64"/></linearGradient><linearGradient id="Dégradé_sans_nom_5" y1="28.25" x2="80.72" y2="28.25" gradientUnits="userSpaceOnUse"><stop offset="0" stop-color="#524fff"/><stop offset="1" stop-color="#6966ff"/></linearGradient></defs><g id="Calque_2" data-name="Calque 2"><g id="Calque_1-2" data-name="Calque 1"><g id="_2" data-name="2"><polygon class="cls-1" points="40.36 46.51 80.72 74.76 40.36 103.01 0 74.76 40.36 46.51"/><polygon class="cls-2" points="80.72 74.76 80.72 87.81 40.36 116.06 40.36 103.01 80.72 74.76"/><polygon class="cls-3" points="0 74.76 0 87.81 40.36 116.06 40.36 103.01 0 74.76"/></g><polygon class="cls-4" points="40.36 22.81 80.72 51.06 40.36 79.31 0 51.06 40.36 22.81"/><polygon class="cls-5" points="80.72 51.06 80.72 64.11 40.36 92.36 40.36 79.31 80.72 51.06"/><polygon class="cls-6" points="0 51.06 0 64.11 40.36 92.36 40.36 79.31 0 51.06"/><g id="_1" data-name="1"><polygon class="cls-7" points="40.36 0 80.72 28.25 40.36 56.5 0 28.25 40.36 0"/><polygon class="cls-8" points="80.72 28.25 80.72 41.3 40.36 69.55 40.36 56.5 80.72 28.25"/><polygon class="cls-9" points="0 28.25 0 41.3 40.36 69.55 40.36 56.5 0 28.25"/></g><text class="cls-10" transform="translate(112.69 85.32)">A<tspan class="cls-11" x="48.41" y="0">cademint</tspan></text></g></g></svg>