<svg xmlns="http://www.w3.org/2000/svg" xmlns:xlink="http://www.w3.org/1999/xlink" viewBox="0 0 201.51 289.74"><defs><style>.cls-1{fill:url(#Dégradé_sans_nom_12);}.cls-2{fill:#f1f1f1;}.cls-3{fill:#d8d8d8;}.cls-4{fill:url(#Dégradé_sans_nom_16);}.cls-5{fill:#4f4c64;}.cls-6{fill:#393953;}.cls-7{fill:url(#Dégradé_sans_nom_5);}.cls-8{fill:#6966ff;}.cls-9{fill:#524fff;}</style><linearGradient id="Dégradé_sans_nom_12" y1="186.64" x2="201.51" y2="186.64" gradientUnits="userSpaceOnUse"><stop offset="0" stop-color="#d8d8d8"/><stop offset="1" stop-color="#f1f1f1"/></linearGradient><linearGradient id="Dégradé_sans_nom_16" y1="127.47" x2="201.51" y2="127.47" gradientUnits="userSpaceOnUse"><stop offset="0" stop-color="#393953"/><stop offset="1" stop-color="#4f4c64"/></linearGradient><linearGradient id="Dégradé_sans_nom_5" y1="70.53" x2="201.51" y2="70.53" gradientUnits="userSpaceOnUse"><stop offset="0" stop-color="#524fff"/><stop offset="1" stop-color="#6966ff"/></linearGradient></defs><g id="Calque_2" data-name="Calque 2"><g id="Calque_1-2" data-name="Calque 1"><g id="_2" data-name="2"><polygon class="cls-1" points="100.76 116.11 201.51 186.64 100.76 257.17 0 186.64 100.76 116.11"/><polygon class="cls-2" points="201.51 186.64 201.51 219.21 100.76 289.74 100.76 257.17 201.51 186.64"/><polygon class="cls-3" points="0 186.64 0 219.21 100.76 289.74 100.76 257.17 0 186.64"/></g><polygon class="cls-4" points="100.76 56.94 201.51 127.47 100.76 198 0 127.47 100.76 56.94"/><polygon class="cls-5" points="201.51 127.47 201.51 160.04 100.76 230.57 100.76 198 201.51 127.47"/><polygon class="cls-6" points="0 127.47 0 160.04 100.76 230.57 100.76 198 0 127.47"/><g id="_1" data-name="1"><polygon class="cls-7" points="100.76 0 201.51 70.53 100.76 141.06 0 70.53 100.76 0"/><polygon class="cls-8" points="201.51 70.53 201.51 103.1 100.76 173.63 100.76 141.06 201.51 70.53"/><polygon class="cls-9" points="0 70.53 0 103.1 100.76 173.63 100.76 141.06 0 70.53"/></g></g></g></svg>